<svg width="83" height="83" viewBox="0 0 83 83" fill="none" xmlns="http://www.w3.org/2000/svg">
<g clip-path="url(#clip0_3_53)">
<path d="M82.8379 16.6859C82.5442 15.7095 81.8754 14.8894 80.9781 14.4053C80.0807 13.9212 79.028 13.8127 78.0508 14.1035L75.5997 14.8298C73.8378 11.5153 71.0907 8.82935 67.7374 7.14254L68.3518 4.79681C68.6078 3.80795 68.4605 2.75788 67.9424 1.87761C67.4242 0.997334 66.5775 0.358966 65.5886 0.102936C64.5998 -0.153093 63.5497 -0.00581206 62.6694 0.51238C61.7892 1.03057 61.1508 1.87723 60.8948 2.86609L60.2852 5.1956C59.0737 5.15399 57.861 5.23382 56.6653 5.4339C54.2388 5.85488 51.8393 6.41838 49.479 7.12146L48.782 5.17615C48.4297 4.22945 47.7193 3.4592 46.8041 3.03162C45.889 2.60405 44.8424 2.55342 43.8902 2.89066C42.9381 3.22791 42.1567 3.92599 41.7146 4.83427C41.2726 5.74255 41.2054 6.7882 41.5276 7.74558L42.2246 9.699C38.9092 11.139 35.7258 12.8656 32.7104 14.8589L31.4136 13.1357C30.7995 12.3217 29.8887 11.7831 28.8795 11.6374C27.8703 11.4916 26.8443 11.7505 26.025 12.3576C25.6201 12.6574 25.2784 13.0343 25.0197 13.4666C24.7609 13.899 24.5903 14.3782 24.5175 14.8768C24.4447 15.3754 24.4713 15.8834 24.5956 16.3717C24.72 16.8599 24.9397 17.3188 25.2421 17.7218L26.5389 19.445C23.7987 21.7857 21.2658 24.3588 18.9684 27.1355L17.1852 25.8386C16.7802 25.5224 16.3159 25.2907 15.8197 25.1573C15.3235 25.0238 14.8056 24.9914 14.2966 25.0618C13.7877 25.1322 13.298 25.3041 12.8567 25.5672C12.4154 25.8304 12.0314 26.1795 11.7275 26.5938C11.4236 27.0081 11.206 27.4791 11.0875 27.9791C10.969 28.4791 10.9521 28.9977 11.0378 29.5043C11.1234 30.011 11.3099 30.4952 11.5862 30.9284C11.8625 31.3616 12.2229 31.735 12.6462 32.0263L14.4439 33.3329C12.501 36.3567 10.8239 39.5433 9.43152 42.8569L7.33545 42.1387C6.85719 41.9631 6.34873 41.8846 5.83979 41.9078C5.33084 41.931 4.83163 42.0554 4.3713 42.2737C3.91098 42.492 3.49878 42.7999 3.15881 43.1793C2.81883 43.5588 2.55789 44.0022 2.39123 44.4836C2.22457 44.965 2.15554 45.4749 2.18818 45.9833C2.22081 46.4917 2.35445 46.9885 2.58128 47.4447C2.80812 47.9009 3.1236 48.3073 3.5093 48.6402C3.89499 48.973 4.34316 49.2257 4.82762 49.3834L6.93504 50.1096C6.31481 52.271 5.81154 54.4643 5.42742 56.6799C5.21507 58.0394 5.1585 59.4187 5.25883 60.791L2.75586 61.5302C1.78183 61.8207 0.963063 62.4861 0.479681 63.3802C-0.00370175 64.2743 -0.112104 65.3238 0.178321 66.2979C0.468746 67.2719 1.13421 68.0907 2.02831 68.574C2.92242 69.0574 3.97193 69.1658 4.94596 68.8754L7.3776 68.1556C9.14255 71.4623 11.8918 74.1384 15.2448 75.8137L14.6206 78.2048C14.4946 78.6926 14.4659 79.2005 14.5362 79.6994C14.6065 80.1984 14.7744 80.6786 15.0303 81.1126C15.2862 81.5466 15.6251 81.9259 16.0277 82.2289C16.4303 82.5319 16.8886 82.7526 17.3765 82.8784C17.6945 82.9586 18.0212 82.9995 18.3492 83C19.2006 83.0018 20.0285 82.721 20.7032 82.2018C21.3779 81.6825 21.8613 80.9541 22.0777 80.1307L22.6953 77.759C22.9174 77.7671 23.1444 77.8157 23.3648 77.8157C26.8762 77.7974 30.3058 76.7539 33.2324 74.8135L35.0886 76.7166C35.8018 77.4253 36.7644 77.8262 37.7698 77.8332C38.7752 77.8403 39.7433 77.4529 40.4663 76.7542C41.1894 76.0556 41.6097 75.1014 41.6372 74.0963C41.6647 73.0913 41.2971 72.1155 40.6133 71.3784L38.6371 69.352C39.951 67.3137 40.8393 65.0309 41.2487 62.6407C41.452 61.5041 41.7315 60.3825 42.0852 59.2834L44.0305 60.1977C44.4872 60.4221 44.9839 60.5534 45.4918 60.5839C45.9997 60.6144 46.5086 60.5436 46.9888 60.3756C47.4691 60.2075 47.9111 59.9456 48.2891 59.605C48.6671 59.2645 48.9736 58.8521 49.1907 58.392C49.4079 57.9318 49.5313 57.4331 49.5537 56.9248C49.5762 56.4165 49.4974 55.9088 49.3217 55.4313C49.1461 54.9537 48.8772 54.5159 48.5307 54.1434C48.1842 53.7708 47.767 53.4708 47.3035 53.261L45.4036 52.3711C45.5479 52.1571 45.6613 51.922 45.8121 51.7129C46.3421 51.0093 46.9081 50.3334 47.5078 49.6881C48.2926 48.8057 49.137 47.9781 50.0351 47.2111C50.7203 46.6124 51.4361 46.0496 52.1798 45.5252C52.4229 45.3631 52.6823 45.2188 52.9303 45.0599L53.7782 46.9728C53.9813 47.4356 54.2735 47.8539 54.6383 48.2038C55.003 48.5536 55.4331 48.8282 55.904 49.0119C56.3748 49.1955 56.8772 49.2846 57.3825 49.2741C57.8878 49.2636 58.3861 49.1536 58.8489 48.9505C59.3118 48.7474 59.73 48.4552 60.0799 48.0904C60.4298 47.7257 60.7044 47.2956 60.888 46.8248C61.0717 46.3539 61.1608 45.8515 61.1502 45.3462C61.1397 44.8409 61.0298 44.3426 60.8267 43.8798L59.9578 41.9166C60.8363 41.6476 61.7287 41.4257 62.631 41.252C65.255 40.8021 67.7465 39.7756 69.9259 38.2465L72.0868 40.1918C72.455 40.5549 72.8928 40.8399 73.3738 41.0297C73.8549 41.2196 74.3693 41.3103 74.8863 41.2964C75.4032 41.2826 75.9121 41.1644 76.3822 40.9491C76.8524 40.7338 77.2743 40.4258 77.6226 40.0435C77.9708 39.6611 78.2382 39.2124 78.4088 38.7242C78.5794 38.236 78.6496 37.7184 78.6153 37.2024C78.581 36.6864 78.4428 36.1826 78.209 35.7214C77.9752 35.2601 77.6507 34.8507 77.2548 34.5179L75.1571 32.6261C77.0399 29.4918 77.9216 25.8576 77.6844 22.209L80.2441 21.4503C80.7279 21.3088 81.1789 21.0731 81.5713 20.7567C81.9638 20.4404 82.2898 20.0497 82.5308 19.607C82.7718 19.1643 82.923 18.6783 82.9757 18.1771C83.0284 17.6758 82.9816 17.169 82.8379 16.6859ZM25.9375 59.6562C24.3985 59.6562 22.8941 59.1999 21.6145 58.3449C20.3348 57.4899 19.3375 56.2746 18.7486 54.8528C18.1596 53.4309 18.0055 51.8664 18.3058 50.3569C18.606 48.8475 19.3471 47.461 20.4353 46.3728C21.5236 45.2846 22.91 44.5435 24.4195 44.2433C25.9289 43.943 27.4934 44.0971 28.9153 44.6861C30.3371 45.275 31.5524 46.2723 32.4074 47.552C33.2624 48.8316 33.7188 50.336 33.7188 51.875C33.7188 53.9387 32.8989 55.9179 31.4397 57.3772C29.9804 58.8364 28.0012 59.6562 25.9375 59.6562ZM38.9063 37.6094C38.1368 37.6094 37.3845 37.3812 36.7447 36.9537C36.1049 36.5262 35.6063 35.9185 35.3118 35.2076C35.0173 34.4967 34.9403 33.7144 35.0904 32.9597C35.2405 32.205 35.611 31.5118 36.1552 30.9677C36.6993 30.4235 37.3925 30.053 38.1472 29.9029C38.9019 29.7528 39.6842 29.8298 40.3951 30.1243C41.106 30.4187 41.7137 30.9174 42.1412 31.5572C42.5687 32.197 42.7969 32.9493 42.7969 33.7187C42.7969 34.7506 42.387 35.7402 41.6573 36.4698C40.9277 37.1995 39.9381 37.6094 38.9063 37.6094Z" fill="white"/>
</g>
<defs>
<clipPath id="clip0_3_53">
<rect width="83" height="83" fill="white"/>
</clipPath>
</defs>
</svg>
