<svg width="104" height="92" viewBox="0 0 104 92" fill="none" xmlns="http://www.w3.org/2000/svg">
<path d="M7.84477 24.5385C11.9935 25.8852 15.6366 28.6402 18.2408 32.4C21.2587 36.7362 22.6954 42.132 22.2746 47.55C22.1932 48.6077 22.9045 50.1346 24.2066 51.0577C26.7723 52.8838 28.6141 55.69 29.3676 58.9213C30.1212 62.1526 29.7315 65.5737 28.2758 68.5077C30.3209 68.989 32.4075 69.2314 34.5 69.2308C41.768 69.2308 48.4132 66.3461 53.5228 61.5692C51.8031 59.5769 50.3452 57.0731 50.0338 54.0385C49.7154 50.9 50.5151 48.6692 51.6969 46.8692C52.1588 46.1862 52.6549 45.5314 53.1831 44.9077L53.2998 44.7654C53.8023 44.15 54.1986 43.6538 54.5277 43.1192C54.9435 42.4437 55.0965 41.6168 54.9533 40.8191C54.8101 40.0214 54.3823 39.3176 53.7634 38.8615C52.9955 38.3 52.624 38.3846 50.5469 38.8615L50.1577 38.9538C47.7445 39.5077 44.6094 39.9115 40.3208 37.5692C37.7686 36.181 35.5137 34.2247 33.7025 31.8274C31.8914 29.4302 30.5644 26.6456 29.8079 23.6545C29.0514 20.6635 28.8822 17.5329 29.3114 14.4661C29.7406 11.3994 30.7585 8.46508 32.2991 5.85385C27.0538 6.28832 22.0136 8.25348 17.7102 11.542C13.4068 14.8306 9.99617 19.3206 7.84477 24.5385ZM37.9606 0.184616C38.2083 0.176923 38.4548 0.206411 38.7002 0.273077C55.7662 2.52308 69 18.3346 69 37.5C69 58.2115 53.5546 75 34.5 75C15.4454 75 0 58.2115 0 37.5C0 16.7885 15.4454 0 34.5 0C35.6677 0 36.8236 0.0615388 37.9606 0.184616Z" fill="white"/>
<path d="M99.625 86.1667H74.8333V85.3792L82.125 78.0875L87.6667 83.6292C87.9399 83.9008 88.3095 84.0532 88.6948 84.0532C89.0801 84.0532 89.4497 83.9008 89.7229 83.6292L100.66 72.6917C100.797 72.5561 100.906 72.3948 100.98 72.2171C101.054 72.0394 101.092 71.8488 101.092 71.6562C101.092 71.4637 101.054 71.2731 100.98 71.0954C100.906 70.9177 100.797 70.7564 100.66 70.6208C100.387 70.3492 100.018 70.1968 99.6323 70.1968C99.247 70.1968 98.8774 70.3492 98.6042 70.6208L88.6875 80.5375L83.1604 74.9958C82.8872 74.7242 82.5176 74.5718 82.1323 74.5718C81.747 74.5718 81.3774 74.7242 81.1042 74.9958L74.8333 81.2521V73.7125L82.125 66.4208L86.2083 70.5042C86.4816 70.7758 86.8512 70.9282 87.2365 70.9282C87.6217 70.9282 87.9913 70.7758 88.2646 70.5042L95.25 63.5187L98.4437 66.7125C98.7184 66.9852 99.09 67.1376 99.477 67.1362C99.864 67.1349 100.235 66.9798 100.507 66.7052C100.78 66.4306 100.932 66.0589 100.931 65.6719C100.93 65.2849 100.775 64.9143 100.5 64.6417L96.2562 60.4271C95.983 60.1555 95.6134 60.003 95.2281 60.003C94.8429 60.003 94.4732 60.1555 94.2 60.4271L87.2 67.4271L83.1312 63.3437C82.858 63.0721 82.4884 62.9197 82.1031 62.9197C81.7179 62.9197 81.3482 63.0721 81.075 63.3437L74.8333 69.5854V61.375C74.8333 60.9882 74.6797 60.6173 74.4062 60.3438C74.1327 60.0703 73.7618 59.9167 73.375 59.9167C72.9882 59.9167 72.6173 60.0703 72.3438 60.3438C72.0703 60.6173 71.9167 60.9882 71.9167 61.375V87.625C71.9167 88.0118 72.0703 88.3827 72.3438 88.6562C72.6173 88.9297 72.9882 89.0833 73.375 89.0833H99.625C100.012 89.0833 100.383 88.9297 100.656 88.6562C100.93 88.3827 101.083 88.0118 101.083 87.625C101.083 87.2382 100.93 86.8673 100.656 86.5938C100.383 86.3203 100.012 86.1667 99.625 86.1667Z" fill="white"/>
</svg>
