<svg width="84" height="84" viewBox="0 0 84 84" fill="none" xmlns="http://www.w3.org/2000/svg">
<path d="M36.75 55.125H47.25L42 44.625L36.75 55.125ZM29.75 45.5C31.675 45.5 33.3235 44.8152 34.6955 43.4455C36.0675 42.0758 36.7523 40.4273 36.75 38.5C36.7477 36.5727 36.0628 34.9253 34.6955 33.558C33.3282 32.1907 31.6797 31.5047 29.75 31.5C27.8203 31.4953 26.173 32.1813 24.808 33.558C23.443 34.9347 22.757 36.582 22.75 38.5C22.743 40.418 23.429 42.0665 24.808 43.4455C26.187 44.8245 27.8343 45.5093 29.75 45.5ZM54.25 45.5C56.175 45.5 57.8235 44.8152 59.1955 43.4455C60.5675 42.0758 61.2523 40.4273 61.25 38.5C61.2477 36.5727 60.5628 34.9253 59.1955 33.558C57.8282 32.1907 56.1797 31.5047 54.25 31.5C52.3203 31.4953 50.673 32.1813 49.308 33.558C47.943 34.9347 47.257 36.582 47.25 38.5C47.243 40.418 47.929 42.0665 49.308 43.4455C50.687 44.8245 52.3343 45.5093 54.25 45.5ZM21 77V62.125C18.725 61.1333 16.7265 59.8068 15.0045 58.1455C13.2825 56.4842 11.8242 54.6023 10.6295 52.5C9.43483 50.3977 8.53066 48.1518 7.917 45.7625C7.30333 43.3732 6.99766 40.9523 7 38.5C7 29.2833 10.2667 21.7292 16.8 15.8375C23.3333 9.94583 31.7333 7 42 7C52.2667 7 60.6667 9.94583 67.2 15.8375C73.7333 21.7292 77 29.2833 77 38.5C77 40.95 76.6943 43.3708 76.083 45.7625C75.4717 48.1542 74.5675 50.4 73.3705 52.5C72.1735 54.6 70.7152 56.4818 68.9955 58.1455C67.2758 59.8092 65.2773 61.1357 63 62.125V77H52.5V70H45.5V77H38.5V70H31.5V77H21Z" fill="white"/>
</svg>
